999
dxfrw 0.6.3
  0
SECTION
  2
HEADER
  9
$ACADVER
  1
AC1021
  9
$DWGCODEPAGE
  3
ANSI_1252
  9
$INSBASE
 10
0
 20
0
 30
0
  9
$EXTMIN
 10
-121.3106937349461
 20
-33.02208073056028
 30
0
  9
$EXTMAX
 10
279.9999999999997
 20
321.8999999999996
 30
0
  9
$LIMMIN
 10
0
 20
0
  9
$LIMMAX
 10
420
 20
297
  9
$ORTHOMODE
 70
    0
  9
$REGENMODE
 70
    1
  9
$FILLMODE
 70
    1
  9
$QTEXTMODE
 70
    0
  9
$MIRRTEXT
 70
    0
  9
$LTSCALE
 40
1
  9
$ATTMODE
 70
    0
  9
$TEXTSIZE
 40
2.5
  9
$TRACEWID
 40
15.68
  9
$TEXTSTYLE
  7
STANDARD
  9
$CLAYER
  8
0
  9
$CELTYPE
  6
BYLAYER
  9
$CECOLOR
 62
  256
  9
$CELTSCALE
 40
1
  9
$DISPSILH
 70
    0
  9
$DIMSCALE
 40
2.5
  9
$DIMASZ
 40
2.5
  9
$DIMEXO
 40
0.625
  9
$DIMDLI
 40
3.75
  9
$DIMRND
 40
0
  9
$DIMDLE
 40
0
  9
$DIMEXE
 40
1.25
  9
$DIMTP
 40
0
  9
$DIMTM
 40
0
  9
$DIMTXT
 40
2.5
  9
$DIMCEN
 40
2.5
  9
$DIMTSZ
 40
0
  9
$DIMTOL
 70
    0
  9
$DIMLIM
 70
    0
  9
$DIMTIH
 70
    0
  9
$DIMTOH
 70
    0
  9
$DIMSE1
 70
    0
  9
$DIMSE2
 70
    0
  9
$DIMTAD
 70
    1
  9
$DIMZIN
 70
    8
  9
$DIMBLK
  1

  9
$DIMASO
 70
    1
  9
$DIMSHO
 70
    1
  9
$DIMPOST
  1

  9
$DIMAPOST
  1

  9
$DIMALT
 70
    0
  9
$DIMALTD
 70
    3
  9
$DIMALTF
 40
0.03937
  9
$DIMLFAC
 40
1
  9
$DIMTOFL
 70
    1
  9
$DIMTVP
 40
0
  9
$DIMTIX
 70
    0
  9
$DIMSOXD
 70
    0
  9
$DIMSAH
 70
    0
  9
$DIMBLK1
  1

  9
$DIMBLK2
  1

  9
$DIMSTYLE
  2
Standard
  9
$DIMCLRD
 70
    0
  9
$DIMCLRE
 70
    0
  9
$DIMCLRT
 70
    0
  9
$DIMTFAC
 40
1
  9
$DIMGAP
 40
0.625
  9
$DIMJUST
 70
    0
  9
$DIMSD1
 70
    0
  9
$DIMSD2
 70
    0
  9
$DIMTOLJ
 70
    0
  9
$DIMTZIN
 70
    8
  9
$DIMALTZ
 70
    0
  9
$DIMALTTZ
 70
    0
  9
$DIMUPT
 70
    0
  9
$DIMDEC
 70
    2
  9
$DIMTDEC
 70
    2
  9
$DIMALTU
 70
    2
  9
$DIMALTTD
 70
    3
  9
$DIMTXSTY
  7
STANDARD
  9
$DIMAUNIT
 70
    0
  9
$DIMADEC
 70
    0
  9
$DIMALTRND
 40
0
  9
$DIMAZIN
 70
    0
  9
$DIMDSEP
 70
   44
  9
$DIMATFIT
 70
    3
  9
$DIMFRAC
 70
    0
  9
$DIMLDRBLK
  1
STANDARD
  9
$DIMLUNIT
 70
    2
  9
$DIMLWD
 70
   -2
  9
$DIMLWE
 70
   -2
  9
$DIMTMOVE
 70
    0
  9
$DIMFXL
 40
1
  9
$DIMFXLON
 70
    0
  9
$DIMJOGANG
 40
0.7854
  9
$DIMTFILL
 70
    0
  9
$DIMTFILLCLR
 70
    0
  9
$DIMARCSYM
 70
    0
  9
$DIMLTYPE
  6

  9
$DIMLTEX1
  6

  9
$DIMLTEX2
  6

  9
$LUNITS
 70
    2
  9
$LUPREC
 70
    4
  9
$SKETCHINC
 40
1
  9
$FILLETRAD
 40
0
  9
$AUNITS
 70
    0
  9
$AUPREC
 70
    2
  9
$MENU
  1
.
  9
$ELEVATION
 40
0
  9
$PELEVATION
 40
0
  9
$THICKNESS
 40
0
  9
$LIMCHECK
 70
    0
  9
$CHAMFERA
 40
0
  9
$CHAMFERB
 40
0
  9
$CHAMFERC
 40
0
  9
$CHAMFERD
 40
0
  9
$SKPOLY
 70
    0
  9
$USRTIMER
 70
    1
  9
$ANGBASE
 50
0
  9
$ANGDIR
 70
    0
  9
$PDMODE
 70
   34
  9
$PDSIZE
 40
0
  9
$PLINEWID
 40
0
  9
$SPLFRAME
 70
    0
  9
$SPLINETYPE
 70
    2
  9
$SPLINESEGS
 70
    8
  9
$HANDSEED
  5
20000
  9
$SURFTAB1
 70
    6
  9
$SURFTAB2
 70
    6
  9
$SURFTYPE
 70
    6
  9
$SURFU
 70
    6
  9
$SURFV
 70
    6
  9
$UCSBASE
  2

  9
$UCSNAME
  2

  9
$UCSORG
 10
0
 20
0
 30
0
  9
$UCSXDIR
 10
1
 20
0
 30
0
  9
$UCSYDIR
 10
0
 20
1
 30
0
  9
$UCSORTHOREF
  2

  9
$UCSORTHOVIEW
 70
    0
  9
$UCSORGTOP
 10
0
 20
0
 30
0
  9
$UCSORGBOTTOM
 10
0
 20
0
 30
0
  9
$UCSORGLEFT
 10
0
 20
0
 30
0
  9
$UCSORGRIGHT
 10
0
 20
0
 30
0
  9
$UCSORGFRONT
 10
0
 20
0
 30
0
  9
$UCSORGBACK
 10
0
 20
0
 30
0
  9
$PUCSBASE
  2

  9
$PUCSNAME
  2

  9
$PUCSORG
 10
0
 20
0
 30
0
  9
$PUCSXDIR
 10
1
 20
0
 30
0
  9
$PUCSYDIR
 10
0
 20
1
 30
0
  9
$PUCSORTHOREF
  2

  9
$PUCSORTHOVIEW
 70
    0
  9
$PUCSORGTOP
 10
0
 20
0
 30
0
  9
$PUCSORGBOTTOM
 10
0
 20
0
 30
0
  9
$PUCSORGLEFT
 10
0
 20
0
 30
0
  9
$PUCSORGRIGHT
 10
0
 20
0
 30
0
  9
$PUCSORGFRONT
 10
0
 20
0
 30
0
  9
$PUCSORGBACK
 10
0
 20
0
 30
0
  9
$USERI1
 70
    0
  9
$USERI2
 70
    0
  9
$USERI3
 70
    0
  9
$USERI4
 70
    0
  9
$USERI5
 70
    0
  9
$USERR1
 40
0
  9
$USERR2
 40
0
  9
$USERR3
 40
0
  9
$USERR4
 40
0
  9
$USERR5
 40
0
  9
$WORLDVIEW
 70
    1
  9
$SHADEDGE
 70
    3
  9
$SHADEDIF
 70
   70
  9
$TILEMODE
 70
    1
  9
$MAXACTVP
 70
   64
  9
$PINSBASE
 10
0
 20
0
 30
0
  9
$PLIMCHECK
 70
    0
  9
$PEXTMIN
 10
0
 20
0
 30
0
  9
$PEXTMAX
 10
0
 20
0
 30
0
  9
$SNAPSTYLE
 70
    0
  9
$PLIMMIN
 10
0
 20
0
  9
$PLIMMAX
 10
210
 20
297
  9
$UNITMODE
 70
    0
  9
$VISRETAIN
 70
    1
  9
$PLINEGEN
 70
    0
  9
$PSLTSCALE
 70
    1
  9
$TREEDEPTH
 70
 3020
  9
$CMLSTYLE
  2
Standard
  9
$CMLJUST
 70
    0
  9
$CMLSCALE
 40
20
  9
$PROXYGRAPHICS
 70
    1
  9
$MEASUREMENT
 70
    1
  9
$CELWEIGHT
370
   -1
  9
$ENDCAPS
280
    0
  9
$JOINSTYLE
280
    0
  9
$LWDISPLAY
290
    0
  9
$INSUNITS
 70
    4
  9
$HYPERLINKBASE
  1

  9
$STYLESHEET
  1

  9
$XEDIT
290
    1
  9
$CEPSNTYPE
380
    0
  9
$PSTYLEMODE
290
    1
  9
$EXTNAMES
290
    1
  9
$PSVPSCALE
 40
1
  9
$OLESTARTUP
290
    0
  9
$SORTENTS
280
  127
  9
$INDEXCTL
280
    0
  9
$HIDETEXT
280
    1
  9
$XCLIPFRAME
290
    0
  9
$HALOGAP
280
    0
  9
$OBSCOLOR
 70
  257
  9
$OBSLTYPE
280
    0
  9
$INTERSECTIONDISPLAY
280
    0
  9
$INTERSECTIONCOLOR
 70
  257
  9
$DIMASSOC
280
    1
  9
$PROJECTNAME
  1

  9
$CAMERADISPLAY
290
    0
  9
$LENSLENGTH
 40
50
  9
$CAMERAHEIGHT
 40
0
  9
$STEPSPERSEC
 40
2
  9
$STEPSIZE
 40
50
  9
$3DDWFPREC
 40
2
  9
$PSOLWIDTH
 40
5
  9
$PSOLHEIGHT
 40
80
  9
$LOFTANG1
 40
1.570796326794897
  9
$LOFTANG2
 40
1.570796326794897
  9
$LOFTMAG1
 40
0
  9
$LOFTMAG2
 40
0
  9
$LOFTPARAM
 70
    7
  9
$LOFTNORMALS
280
    1
  9
$LATITUDE
 40
1
  9
$LONGITUDE
 40
1
  9
$NORTHDIRECTION
 40
0
  9
$TIMEZONE
 70
-8000
  9
$LIGHTGLYPHDISPLAY
280
    1
  9
$TILEMODELIGHTSYNCH
280
    1
  9
$SOLIDHIST
280
    1
  9
$SHOWHIST
280
    1
  9
$DWFFRAME
280
    2
  9
$DGNFRAME
280
    0
  9
$REALWORLDSCALE
290
    1
  9
$INTERFERECOLOR
 62
    1
  9
$CSHADOW
280
    0
  9
$SHADOWPLANELOCATION
 40
0
  0
ENDSEC
  0
SECTION
  2
CLASSES
  0
ENDSEC
  0
SECTION
  2
TABLES
  0
TABLE
  2
VPORT
  5
8
330
0
100
AcDbSymbolTable
 70
    1
  0
VPORT
  5
31
330
2
100
AcDbSymbolTableRecord
100
AcDbViewportTableRecord
  2
*ACTIVE
 70
    0
 10
0
 20
0
 11
1
 21
1
 12
354.7214397183912
 22
225.5413878524417
 13
0
 23
0
 14
10
 24
10
 15
10
 25
10
 16
0
 26
0
 36
1
 17
0
 27
0
 37
0
 40
652.1846942853886
 41
1.635974304068522
 42
50
 43
0
 44
0
 50
0
 51
0
 71
    0
 72
  100
 73
    1
 74
    3
 75
    0
 76
    1
 77
    0
 78
    0
281
    0
 65
    1
110
0
120
0
130
0
111
1
121
0
131
0
112
0
122
1
132
0
 79
    0
146
0
348
10020
 60
    7
 61
    5
292
1
282
    1
141
0
142
0
 63
  250
421
3358443
  0
ENDTAB
  0
TABLE
  2
LTYPE
  5
5
330
0
100
AcDbSymbolTable
 70
    4
  0
LTYPE
  5
14
330
5
100
AcDbSymbolTableRecord
100
AcDbLinetypeTableRecord
  2
ByBlock
 70
    0
  3

 72
   65
 73
    0
 40
0
  0
LTYPE
  5
15
330
5
100
AcDbSymbolTableRecord
100
AcDbLinetypeTableRecord
  2
ByLayer
 70
    0
  3

 72
   65
 73
    0
 40
0
  0
LTYPE
  5
16
330
5
100
AcDbSymbolTableRecord
100
AcDbLinetypeTableRecord
  2
Continuous
 70
    0
  3
Solid line
 72
   65
 73
    0
 40
0
  0
LTYPE
  5
32
330
5
100
AcDbSymbolTableRecord
100
AcDbLinetypeTableRecord
  2
DOT
 70
    0
  3
Dot . . . . . . . . . . . . . . . . . . . . . .
 72
   65
 73
    2
 40
6.35
 49
0
 74
    0
 49
-6.35
 74
    0
  0
LTYPE
  5
33
330
5
100
AcDbSymbolTableRecord
100
AcDbLinetypeTableRecord
  2
DOTTINY
 70
    0
  3
Dot (.15x) .....................................
 72
   65
 73
    2
 40
0.9525
 49
0
 74
    0
 49
-0.9525
 74
    0
  0
LTYPE
  5
34
330
5
100
AcDbSymbolTableRecord
100
AcDbLinetypeTableRecord
  2
DOT2
 70
    0
  3
Dot (.5x) .....................................
 72
   65
 73
    2
 40
3.175
 49
0
 74
    0
 49
-3.175
 74
    0
  0
LTYPE
  5
35
330
5
100
AcDbSymbolTableRecord
100
AcDbLinetypeTableRecord
  2
DOTX2
 70
    0
  3
Dot (2x) .  .  .  .  .  .  .  .  .  .  .  .  .
 72
   65
 73
    2
 40
12.7
 49
0
 74
    0
 49
-12.7
 74
    0
  0
LTYPE
  5
36
330
5
100
AcDbSymbolTableRecord
100
AcDbLinetypeTableRecord
  2
DASHED
 70
    0
  3
Dashed _ _ _ _ _ _ _ _ _ _ _ _ _ _ _ _ _
 72
   65
 73
    2
 40
19.05
 49
12.7
 74
    0
 49
-6.35
 74
    0
  0
LTYPE
  5
37
330
5
100
AcDbSymbolTableRecord
100
AcDbLinetypeTableRecord
  2
DASHEDTINY
 70
    0
  3
Dashed (.15x) _ _ _ _ _ _ _ _ _ _ _ _ _ _ _ _ _
 72
   65
 73
    2
 40
2.8575
 49
1.905
 74
    0
 49
-0.9525
 74
    0
  0
LTYPE
  5
38
330
5
100
AcDbSymbolTableRecord
100
AcDbLinetypeTableRecord
  2
DASHED2
 70
    0
  3
Dashed (.5x) _ _ _ _ _ _ _ _ _ _ _ _ _ _ _ _ _
 72
   65
 73
    2
 40
9.524999999999999
 49
6.35
 74
    0
 49
-3.175
 74
    0
  0
LTYPE
  5
39
330
5
100
AcDbSymbolTableRecord
100
AcDbLinetypeTableRecord
  2
DASHEDX2
 70
    0
  3
Dashed (2x) ____  ____  ____  ____  ____  ___
 72
   65
 73
    2
 40
38.09999999999999
 49
25.4
 74
    0
 49
-12.7
 74
    0
  0
LTYPE
  5
3A
330
5
100
AcDbSymbolTableRecord
100
AcDbLinetypeTableRecord
  2
DASHDOT
 70
    0
  3
Dash dot __ . __ . __ . __ . __ . __ . __ . __
 72
   65
 73
    4
 40
25.4
 49
12.7
 74
    0
 49
-6.35
 74
    0
 49
0
 74
    0
 49
-6.35
 74
    0
  0
LTYPE
  5
3B
330
5
100
AcDbSymbolTableRecord
100
AcDbLinetypeTableRecord
  2
DASHDOTTINY
 70
    0
  3
Dash dot (.15x) _._._._._._._._._._._._._._._.
 72
   65
 73
    4
 40
3.81
 49
1.905
 74
    0
 49
-0.9525
 74
    0
 49
0
 74
    0
 49
-0.9525
 74
    0
  0
LTYPE
  5
3C
330
5
100
AcDbSymbolTableRecord
100
AcDbLinetypeTableRecord
  2
DASHDOT2
 70
    0
  3
Dash dot (.5x) _._._._._._._._._._._._._._._.
 72
   65
 73
    4
 40
12.7
 49
6.35
 74
    0
 49
-3.175
 74
    0
 49
0
 74
    0
 49
-3.175
 74
    0
  0
LTYPE
  5
3D
330
5
100
AcDbSymbolTableRecord
100
AcDbLinetypeTableRecord
  2
DASHDOTX2
 70
    0
  3
Dash dot (2x) ____  .  ____  .  ____  .  ___
 72
   65
 73
    4
 40
50.8
 49
25.4
 74
    0
 49
-12.7
 74
    0
 49
0
 74
    0
 49
-12.7
 74
    0
  0
LTYPE
  5
3E
330
5
100
AcDbSymbolTableRecord
100
AcDbLinetypeTableRecord
  2
DIVIDE
 70
    0
  3
Divide ____ . . ____ . . ____ . . ____ . . ____
 72
   65
 73
    6
 40
31.75
 49
12.7
 74
    0
 49
-6.35
 74
    0
 49
0
 74
    0
 49
-6.35
 74
    0
 49
0
 74
    0
 49
-6.35
 74
    0
  0
LTYPE
  5
3F
330
5
100
AcDbSymbolTableRecord
100
AcDbLinetypeTableRecord
  2
DIVIDETINY
 70
    0
  3
Divide (.15x) __..__..__..__..__..__..__..__.._
 72
   65
 73
    6
 40
4.7625
 49
1.905
 74
    0
 49
-0.9525
 74
    0
 49
0
 74
    0
 49
-0.9525
 74
    0
 49
0
 74
    0
 49
-0.9525
 74
    0
  0
LTYPE
  5
40
330
5
100
AcDbSymbolTableRecord
100
AcDbLinetypeTableRecord
  2
DIVIDE2
 70
    0
  3
Divide (.5x) __..__..__..__..__..__..__..__.._
 72
   65
 73
    6
 40
15.875
 49
6.35
 74
    0
 49
-3.175
 74
    0
 49
0
 74
    0
 49
-3.175
 74
    0
 49
0
 74
    0
 49
-3.175
 74
    0
  0
LTYPE
  5
41
330
5
100
AcDbSymbolTableRecord
100
AcDbLinetypeTableRecord
  2
DIVIDEX2
 70
    0
  3
Divide (2x) ________  .  .  ________  .  .  _
 72
   65
 73
    6
 40
63.5
 49
25.4
 74
    0
 49
-12.7
 74
    0
 49
0
 74
    0
 49
-12.7
 74
    0
 49
0
 74
    0
 49
-12.7
 74
    0
  0
LTYPE
  5
42
330
5
100
AcDbSymbolTableRecord
100
AcDbLinetypeTableRecord
  2
BORDER
 70
    0
  3
Border __ __ . __ __ . __ __ . __ __ . __ __ .
 72
   65
 73
    6
 40
44.45
 49
12.7
 74
    0
 49
-6.35
 74
    0
 49
12.7
 74
    0
 49
-6.35
 74
    0
 49
0
 74
    0
 49
-6.35
 74
    0
  0
LTYPE
  5
43
330
5
100
AcDbSymbolTableRecord
100
AcDbLinetypeTableRecord
  2
BORDERTINY
 70
    0
  3
Border (.15x) __.__.__.__.__.__.__.__.__.__.__.
 72
   65
 73
    6
 40
6.6675
 49
1.905
 74
    0
 49
-0.9525
 74
    0
 49
1.905
 74
    0
 49
-0.9525
 74
    0
 49
0
 74
    0
 49
-0.9525
 74
    0
  0
LTYPE
  5
44
330
5
100
AcDbSymbolTableRecord
100
AcDbLinetypeTableRecord
  2
BORDER2
 70
    0
  3
Border (.5x) __.__.__.__.__.__.__.__.__.__.__.
 72
   65
 73
    6
 40
22.225
 49
6.35
 74
    0
 49
-3.175
 74
    0
 49
6.35
 74
    0
 49
-3.175
 74
    0
 49
0
 74
    0
 49
-3.175
 74
    0
  0
LTYPE
  5
45
330
5
100
AcDbSymbolTableRecord
100
AcDbLinetypeTableRecord
  2
BORDERX2
 70
    0
  3
Border (2x) ____  ____  .  ____  ____  .  ___
 72
   65
 73
    6
 40
88.89999999999999
 49
25.4
 74
    0
 49
-12.7
 74
    0
 49
25.4
 74
    0
 49
-12.7
 74
    0
 49
0
 74
    0
 49
-12.7
 74
    0
  0
LTYPE
  5
46
330
5
100
AcDbSymbolTableRecord
100
AcDbLinetypeTableRecord
  2
CENTER
 70
    0
  3
Center ____ _ ____ _ ____ _ ____ _ ____ _ ____
 72
   65
 73
    4
 40
50.8
 49
31.75
 74
    0
 49
-6.35
 74
    0
 49
6.35
 74
    0
 49
-6.35
 74
    0
  0
LTYPE
  5
47
330
5
100
AcDbSymbolTableRecord
100
AcDbLinetypeTableRecord
  2
CENTERTINY
 70
    0
  3
Center (.15x) ___ _ ___ _ ___ _ ___ _ ___ _ ___
 72
   65
 73
    4
 40
7.619999999999999
 49
4.7625
 74
    0
 49
-0.9525
 74
    0
 49
0.9525
 74
    0
 49
-0.9525
 74
    0
  0
LTYPE
  5
48
330
5
100
AcDbSymbolTableRecord
100
AcDbLinetypeTableRecord
  2
CENTER2
 70
    0
  3
Center (.5x) ___ _ ___ _ ___ _ ___ _ ___ _ ___
 72
   65
 73
    4
 40
28.575
 49
19.05
 74
    0
 49
-3.175
 74
    0
 49
3.175
 74
    0
 49
-3.175
 74
    0
  0
LTYPE
  5
49
330
5
100
AcDbSymbolTableRecord
100
AcDbLinetypeTableRecord
  2
CENTERX2
 70
    0
  3
Center (2x) ________  __  ________  __  _____
 72
   65
 73
    4
 40
101.6
 49
63.5
 74
    0
 49
-12.7
 74
    0
 49
12.7
 74
    0
 49
-12.7
 74
    0
  0
ENDTAB
  0
TABLE
  2
LAYER
  5
2
330
0
100
AcDbSymbolTable
 70
    1
  0
LAYER
  5
10
330
2
100
AcDbSymbolTableRecord
100
AcDbLayerTableRecord
  2
0
 70
    0
 62
    7
  6
CONTINUOUS
370
   -3
390
F
  0
LAYER
  5
4A
330
2
100
AcDbSymbolTableRecord
100
AcDbLayerTableRecord
  2
Engrave
 70
    0
 62
    7
  6
CONTINUOUS
370
    0
390
F
  0
ENDTAB
  0
TABLE
  2
STYLE
  5
3
330
0
100
AcDbSymbolTable
 70
    3
  0
STYLE
  5
4B
330
2
100
AcDbSymbolTableRecord
100
AcDbTextStyleTableRecord
  2
Standard
 70
    0
 40
0
 41
1
 50
0
 71
    0
 42
1
  3
txt
  4

  0
ENDTAB
  0
TABLE
  2
VIEW
  5
6
330
0
100
AcDbSymbolTable
 70
    0
  0
ENDTAB
  0
TABLE
  2
UCS
  5
7
330
0
100
AcDbSymbolTable
 70
    0
  0
ENDTAB
  0
TABLE
  2
APPID
  5
9
330
0
100
AcDbSymbolTable
 70
    1
  0
APPID
  5
12
330
9
100
AcDbSymbolTableRecord
100
AcDbRegAppTableRecord
  2
ACAD
 70
    0
  0
APPID
  5
4C
330
9
100
AcDbSymbolTableRecord
100
AcDbRegAppTableRecord
  2
LibreCad
 70
    0
  0
ENDTAB
  0
TABLE
  2
DIMSTYLE
  5
A
330
0
100
AcDbSymbolTable
 70
    1
100
AcDbDimStyleTable
 71
    1
  0
DIMSTYLE
105
4D
330
A
100
AcDbSymbolTableRecord
100
AcDbDimStyleTableRecord
  2
Standard
 70
    0
 40
1
 41
2.5
 42
0.625
 43
0.38
 44
1.25
 45
0
 46
0
 47
0
 48
0
 49
1
140
2.5
141
0.09
142
2.5
143
25.4
144
1
145
0
146
1
147
0.625
148
0
 71
    0
 72
    0
 73
    0
 74
    1
 75
    0
 76
    0
 77
    0
 78
    1
 79
    0
170
    0
171
    2
172
    0
173
    0
174
    0
175
    0
176
    0
177
    0
178
    0
179
    0
271
    2
272
    4
273
    2
274
    2
275
    0
276
    0
277
    2
278
    0
279
    0
280
    0
281
    0
282
    0
283
    1
284
    0
285
    0
286
    0
288
    0
289
    3
340
standard
341

371
   -2
372
   -2
  0
ENDTAB
  0
TABLE
  2
BLOCK_RECORD
  5
1
330
0
100
AcDbSymbolTable
 70
    2
  0
BLOCK_RECORD
  5
1F
330
1
100
AcDbSymbolTableRecord
100
AcDbBlockTableRecord
  2
*Model_Space
 70
    0
280
    1
281
    0
  0
BLOCK_RECORD
  5
1E
330
1
100
AcDbSymbolTableRecord
100
AcDbBlockTableRecord
  2
*Paper_Space
 70
    0
280
    1
281
    0
  0
BLOCK_RECORD
  5
4E
330
1
100
AcDbSymbolTableRecord
100
AcDbBlockTableRecord
  2
ingrave
 70
    0
280
    1
281
    0
  0
BLOCK_RECORD
  5
51
330
1
100
AcDbSymbolTableRecord
100
AcDbBlockTableRecord
  2
ingrave-0
 70
    0
280
    1
281
    0
  0
ENDTAB
  0
ENDSEC
  0
SECTION
  2
BLOCKS
  0
BLOCK
  5
20
330
1F
100
AcDbEntity
  8
0
100
AcDbBlockBegin
  2
*Model_Space
 70
    0
 10
0
 20
0
 30
0
  3
*Model_Space
  1

  0
ENDBLK
  5
21
330
1F
100
AcDbEntity
  8
0
100
AcDbBlockEnd
  0
BLOCK
  5
1C
330
1B
100
AcDbEntity
  8
0
100
AcDbBlockBegin
  2
*Paper_Space
 70
    0
 10
0
 20
0
 30
0
  3
*Paper_Space
  1

  0
ENDBLK
  5
1D
330
1F
100
AcDbEntity
  8
0
100
AcDbBlockEnd
  0
BLOCK
  5
4F
330
4E
100
AcDbEntity
  8
0
100
AcDbBlockBegin
  2
ingrave
 70
    0
 10
0
 20
0
  3
ingrave
  1

  0
CIRCLE
  5
54
100
AcDbEntity
  8
0
  6
ByLayer
 62
  256
370
   -1
100
AcDbCircle
 10
-113.310693734946
 20
218.8779192694413
 40
5
  0
CIRCLE
  5
55
100
AcDbEntity
  8
0
  6
ByLayer
 62
  256
370
   -1
100
AcDbCircle
 10
0.6893062650535684
 20
34.6779192694417
 40
5
  0
CIRCLE
  5
56
100
AcDbEntity
  8
0
  6
ByLayer
 62
  256
370
   -1
100
AcDbCircle
 10
0.6893062650535684
 20
167.8779192694417
 40
5.000000000000002
  0
CIRCLE
  5
57
100
AcDbEntity
  8
0
  6
ByLayer
 62
  256
370
   -1
100
AcDbCircle
 10
-113.3106937349461
 20
-3.022080730558223
 40
5
  0
CIRCLE
  5
58
100
AcDbEntity
  8
0
  6
ByLayer
 62
  256
370
   -1
100
AcDbCircle
 10
0.6893062650535724
 20
218.8779192694413
 40
5.000000000000011
  0
CIRCLE
  5
59
100
AcDbEntity
  8
0
  6
ByLayer
 62
  256
370
   -1
100
AcDbCircle
 10
-78.81069373494614
 20
66.97791926944178
 40
4.999999999999991
  0
CIRCLE
  5
5A
100
AcDbEntity
  8
0
  6
ByLayer
 62
  256
370
   -1
100
AcDbCircle
 10
-78.81069373494616
 20
203.8779192694413
 40
4.999999999999991
  0
CIRCLE
  5
5B
100
AcDbEntity
  8
0
  6
ByLayer
 62
  256
370
   -1
100
AcDbCircle
 10
0.6893062650535596
 20
-3.0220807305582
 40
5
  0
LWPOLYLINE
  5
5C
100
AcDbEntity
  8
0
  6
ByLayer
 62
  256
370
   -1
100
AcDbPolyline
 90
   12
 70
    1
 43
0
 10
-51.31069373494412
 20
-33.02208073055616
 10
-51.31069373497611
 20
-13.02208073052699
 42
0.9999999999999999
 10
-61.3106937350627
 20
-13.02208073055619
 10
-61.31069373494842
 20
-33.02208073056028
 10
-101.3106937349461
 20
-33.02208073055822
 42
-0.4142135623730954
 10
-121.3106937349461
 20
-13.02208073055822
 10
-121.3106937349461
 20
228.8779192694413
 42
-0.4142135623730959
 10
-101.3106937349461
 20
248.8779192694413
 10
-11.31069373494644
 20
248.8779192694414
 42
-0.4142135623730958
 10
8.68930626505357
 20
228.8779192694413
 10
8.689306265053585
 20
-13.02208073055818
 42
-0.4142135623730955
 10
-11.31069373494643
 20
-33.02208073055822
  0
LWPOLYLINE
  5
5D
100
AcDbEntity
  8
0
  6
ByLayer
 62
  256
370
   -1
100
AcDbPolyline
 90
    4
 70
    1
 43
0
 10
-53.31069373494439
 20
1.97791926944182
 10
-53.31069373494443
 20
5.104055727007779
 42
4.79128784747792
 10
-59.31069373494442
 20
5.104055727008276
 10
-59.31069373497297
 20
1.977919269441756
 42
0.9999999999999999
  0
LINE
  5
5E
100
AcDbEntity
  8
0
  6
ByLayer
 62
  256
370
   -1
100
AcDbLine
 10
-13.7606937349464
 20
20.4779192694417
 11
-13.7606937349464
 21
15.57791926944172
  0
LINE
  5
5F
100
AcDbEntity
  8
0
  6
ByLayer
 62
  256
370
   -1
100
AcDbLine
 10
-13.76069373494641
 20
53.77791926944155
 11
-13.76069373494641
 21
48.87791926944157
  0
LINE
  5
60
100
AcDbEntity
  8
0
  6
ByLayer
 62
  256
370
   -1
100
AcDbLine
 10
-13.76069373494642
 20
87.07791926944141
 11
-13.76069373494642
 21
82.17791926944143
  0
LINE
  5
61
100
AcDbEntity
  8
0
  6
ByLayer
 62
  256
370
   -1
100
AcDbLine
 10
-13.76069373494643
 20
120.3779192694413
 11
-13.76069373494643
 21
115.4779192694413
  0
LINE
  5
62
100
AcDbEntity
  8
0
  6
ByLayer
 62
  256
370
   -1
100
AcDbLine
 10
-13.76069373494644
 20
153.6779192694411
 11
-13.76069373494644
 21
148.7779192694411
  0
LINE
  5
63
100
AcDbEntity
  8
0
  6
ByLayer
 62
  256
370
   -1
100
AcDbLine
 10
-13.76069373494645
 20
186.977919269441
 11
-13.76069373494645
 21
182.077919269441
  0
LINE
  5
64
100
AcDbEntity
  8
0
  6
ByLayer
 62
  256
370
   -1
100
AcDbLine
 10
-58.76069373494617
 20
220.2779192694414
 11
-58.76069373494617
 21
215.3779192694414
  0
LINE
  5
65
100
AcDbEntity
  8
0
  6
ByLayer
 62
  256
370
   -1
100
AcDbLine
 10
8.689306265053574
 20
15.57791926944173
 11
-121.3106937349461
 21
15.57791926944171
  0
LINE
  5
66
100
AcDbEntity
  8
0
  6
ByLayer
 62
  256
370
   -1
100
AcDbLine
 10
8.689306265053576
 20
20.4779192694417
 11
-121.3106937349461
 21
20.47791926944171
  0
LINE
  5
67
100
AcDbEntity
  8
0
  6
ByLayer
 62
  256
370
   -1
100
AcDbLine
 10
8.689306265053574
 20
48.87791926944157
 11
-121.3106937349461
 21
48.87791926944156
  0
LINE
  5
68
100
AcDbEntity
  8
0
  6
ByLayer
 62
  256
370
   -1
100
AcDbLine
 10
-121.3106937349461
 20
53.77791926944155
 11
8.689306265053576
 21
53.77791926944155
  0
LINE
  5
69
100
AcDbEntity
  8
0
  6
ByLayer
 62
  256
370
   -1
100
AcDbLine
 10
8.689306265053576
 20
82.17791926944142
 11
-121.3106937349461
 21
82.17791926944139
  0
LINE
  5
6A
100
AcDbEntity
  8
0
  6
ByLayer
 62
  256
370
   -1
100
AcDbLine
 10
-121.3106937349461
 20
87.07791926944138
 11
8.689306265053576
 21
87.0779192694414
  0
LINE
  5
6B
100
AcDbEntity
  8
0
  6
ByLayer
 62
  256
370
   -1
100
AcDbLine
 10
8.689306265053576
 20
115.4779192694413
 11
-121.3106937349461
 21
115.4779192694413
  0
LINE
  5
6C
100
AcDbEntity
  8
0
  6
ByLayer
 62
  256
370
   -1
100
AcDbLine
 10
-121.3106937349461
 20
120.3779192694413
 11
8.689306265053576
 21
120.3779192694413
  0
LINE
  5
6D
100
AcDbEntity
  8
0
  6
ByLayer
 62
  256
370
   -1
100
AcDbLine
 10
8.689306265053576
 20
148.7779192694411
 11
-121.3106937349461
 21
148.7779192694411
  0
LINE
  5
6E
100
AcDbEntity
  8
0
  6
ByLayer
 62
  256
370
   -1
100
AcDbLine
 10
-121.3106937349461
 20
153.6779192694411
 11
8.689306265053576
 21
153.6779192694411
  0
LINE
  5
6F
100
AcDbEntity
  8
0
  6
ByLayer
 62
  256
370
   -1
100
AcDbLine
 10
8.689306265053567
 20
182.077919269441
 11
-121.3106937349461
 21
182.077919269441
  0
LINE
  5
70
100
AcDbEntity
  8
0
  6
ByLayer
 62
  256
370
   -1
100
AcDbLine
 10
-121.3106937349461
 20
186.977919269441
 11
8.689306265053567
 21
186.977919269441
  0
LINE
  5
71
100
AcDbEntity
  8
0
  6
ByLayer
 62
  256
370
   -1
100
AcDbLine
 10
8.689306265053576
 20
215.3779192694414
 11
-121.3106937349461
 21
215.3779192694414
  0
LINE
  5
72
100
AcDbEntity
  8
0
  6
ByLayer
 62
  256
370
   -1
100
AcDbLine
 10
-121.3106937349461
 20
220.2779192694414
 11
8.689306265053567
 21
220.2779192694414
  0
CIRCLE
  5
73
100
AcDbEntity
  8
0
  6
ByLayer
 62
  256
370
   -1
100
AcDbCircle
 10
-78.81069373494616
 20
203.8779192694413
 40
4.999999999999991
  0
CIRCLE
  5
74
100
AcDbEntity
  8
0
  6
ByLayer
 62
  256
370
   -1
100
AcDbCircle
 10
0.6893062650535596
 20
-3.0220807305582
 40
5
  0
LINE
  5
75
100
AcDbEntity
  8
0
  6
ByLayer
 62
  256
370
   -1
100
AcDbLine
 10
-108.3106937349461
 20
-31.75707472575343
 11
-108.3106937349461
 21
-28.56078168748406
  0
LINE
  5
76
100
AcDbEntity
  8
0
  6
ByLayer
 62
  256
370
   -1
100
AcDbLine
 10
-108.3106937349461
 20
-28.56078168748406
 11
-108.3106937349461
 21
247.6129132646366
  0
LINE
  5
77
100
AcDbEntity
  8
0
  6
ByLayer
 62
  256
370
   -1
100
AcDbLine
 10
-94.31069373494614
 20
248.8779192694413
 11
-94.31069373494614
 21
-33.02208073055858
  0
LINE
  5
78
100
AcDbEntity
  8
0
  6
ByLayer
 62
  256
370
   -1
100
AcDbLine
 10
-63.31069373494618
 20
-33.02208073056016
 11
-63.31069373494628
 21
248.8779192694413
  0
LINE
  5
79
100
AcDbEntity
  8
0
  6
ByLayer
 62
  256
370
   -1
100
AcDbLine
 10
-49.31069373494618
 20
-33.02208073055625
 11
-49.31069373494629
 21
248.8779192694413
  0
LINE
  5
7A
100
AcDbEntity
  8
0
  6
ByLayer
 62
  256
370
   -1
100
AcDbLine
 10
-106.3106937349461
 20
233.8779192694413
 11
-106.3106937349461
 21
35.27791926944165
  0
LINE
  5
7B
100
AcDbEntity
  8
0
  6
ByLayer
 62
  256
370
   -1
100
AcDbLine
 10
-96.31069373494613
 20
35.27791926944164
 11
-96.31069373494613
 21
233.8779192694413
  0
LINE
  5
7C
100
AcDbEntity
  8
0
  6
ByLayer
 62
  256
370
   -1
100
AcDbLine
 10
-61.31069373494618
 20
233.8779192694413
 11
-61.31069373494618
 21
35.27791926944165
  0
LINE
  5
7D
100
AcDbEntity
  8
0
  6
ByLayer
 62
  256
370
   -1
100
AcDbLine
 10
-51.31069373494618
 20
35.27791926944162
 11
-51.31069373494618
 21
233.8779192694413
  0
LINE
  5
7E
100
AcDbEntity
  8
0
  6
ByLayer
 62
  256
370
   -1
100
AcDbLine
 10
-18.31069373494638
 20
-33.02208073055786
 11
-18.31069373494649
 21
248.8779192694414
  0
LINE
  5
7F
100
AcDbEntity
  8
0
  6
ByLayer
 62
  256
370
   -1
100
AcDbLine
 10
-4.310693734946448
 20
247.6129132646366
 11
-4.310693734946437
 21
-31.75707472575343
  0
LINE
  5
80
100
AcDbEntity
  8
0
  6
ByLayer
 62
  256
370
   -1
100
AcDbLine
 10
-16.31069373494645
 20
200.5779192694409
 11
-16.31069373494639
 21
1.97791926944177
  0
LINE
  5
81
100
AcDbEntity
  8
0
  6
ByLayer
 62
  256
370
   -1
100
AcDbLine
 10
-6.310693734946442
 20
1.977919269441781
 11
-6.310693734946503
 21
200.5779192694409
  0
ENDBLK
  5
50
330
4E
100
AcDbEntity
  8
0
100
AcDbBlockEnd
  0
BLOCK
  5
52
330
51
100
AcDbEntity
  8
0
100
AcDbBlockBegin
  2
ingrave-0
 70
    0
 10
0
 20
0
  3
ingrave-0
  1

  0
CIRCLE
  5
82
100
AcDbEntity
  8
0
  6
ByLayer
 62
  256
370
   -1
100
AcDbCircle
 10
-113.310693734946
 20
218.8779192694413
 40
5
  0
CIRCLE
  5
83
100
AcDbEntity
  8
0
  6
ByLayer
 62
  256
370
   -1
100
AcDbCircle
 10
0.6893062650535684
 20
34.6779192694417
 40
5
  0
CIRCLE
  5
84
100
AcDbEntity
  8
0
  6
ByLayer
 62
  256
370
   -1
100
AcDbCircle
 10
0.6893062650535684
 20
167.8779192694417
 40
5.000000000000002
  0
CIRCLE
  5
85
100
AcDbEntity
  8
0
  6
ByLayer
 62
  256
370
   -1
100
AcDbCircle
 10
-113.3106937349461
 20
-3.022080730558223
 40
5
  0
CIRCLE
  5
86
100
AcDbEntity
  8
0
  6
ByLayer
 62
  256
370
   -1
100
AcDbCircle
 10
0.6893062650535724
 20
218.8779192694413
 40
5.000000000000011
  0
CIRCLE
  5
87
100
AcDbEntity
  8
0
  6
ByLayer
 62
  256
370
   -1
100
AcDbCircle
 10
-78.81069373494614
 20
66.97791926944178
 40
4.999999999999991
  0
CIRCLE
  5
88
100
AcDbEntity
  8
0
  6
ByLayer
 62
  256
370
   -1
100
AcDbCircle
 10
-78.81069373494616
 20
203.8779192694413
 40
4.999999999999991
  0
CIRCLE
  5
89
100
AcDbEntity
  8
0
  6
ByLayer
 62
  256
370
   -1
100
AcDbCircle
 10
0.6893062650535596
 20
-3.0220807305582
 40
5
  0
LWPOLYLINE
  5
8A
100
AcDbEntity
  8
0
  6
ByLayer
 62
  256
370
   -1
100
AcDbPolyline
 90
   12
 70
    1
 43
0
 10
-51.31069373494412
 20
-33.02208073055616
 10
-51.31069373497611
 20
-13.02208073052699
 42
0.9999999999999999
 10
-61.3106937350627
 20
-13.02208073055619
 10
-61.31069373494842
 20
-33.02208073056028
 10
-101.3106937349461
 20
-33.02208073055822
 42
-0.4142135623730954
 10
-121.3106937349461
 20
-13.02208073055822
 10
-121.3106937349461
 20
228.8779192694413
 42
-0.4142135623730959
 10
-101.3106937349461
 20
248.8779192694413
 10
-11.31069373494644
 20
248.8779192694414
 42
-0.4142135623730958
 10
8.68930626505357
 20
228.8779192694413
 10
8.689306265053585
 20
-13.02208073055818
 42
-0.4142135623730955
 10
-11.31069373494643
 20
-33.02208073055822
  0
LWPOLYLINE
  5
8B
100
AcDbEntity
  8
0
  6
ByLayer
 62
  256
370
   -1
100
AcDbPolyline
 90
    4
 70
    1
 43
0
 10
-53.31069373494439
 20
1.97791926944182
 10
-53.31069373494443
 20
5.104055727007779
 42
4.79128784747792
 10
-59.31069373494442
 20
5.104055727008276
 10
-59.31069373497297
 20
1.977919269441756
 42
0.9999999999999999
  0
LINE
  5
8C
100
AcDbEntity
  8
0
  6
ByLayer
 62
  256
370
   -1
100
AcDbLine
 10
-13.7606937349464
 20
20.4779192694417
 11
-13.7606937349464
 21
15.57791926944172
  0
LINE
  5
8D
100
AcDbEntity
  8
0
  6
ByLayer
 62
  256
370
   -1
100
AcDbLine
 10
-13.76069373494641
 20
53.77791926944155
 11
-13.76069373494641
 21
48.87791926944157
  0
LINE
  5
8E
100
AcDbEntity
  8
0
  6
ByLayer
 62
  256
370
   -1
100
AcDbLine
 10
-13.76069373494642
 20
87.07791926944141
 11
-13.76069373494642
 21
82.17791926944143
  0
LINE
  5
8F
100
AcDbEntity
  8
0
  6
ByLayer
 62
  256
370
   -1
100
AcDbLine
 10
-13.76069373494643
 20
120.3779192694413
 11
-13.76069373494643
 21
115.4779192694413
  0
LINE
  5
90
100
AcDbEntity
  8
0
  6
ByLayer
 62
  256
370
   -1
100
AcDbLine
 10
-13.76069373494644
 20
153.6779192694411
 11
-13.76069373494644
 21
148.7779192694411
  0
LINE
  5
91
100
AcDbEntity
  8
0
  6
ByLayer
 62
  256
370
   -1
100
AcDbLine
 10
-13.76069373494645
 20
186.977919269441
 11
-13.76069373494645
 21
182.077919269441
  0
LINE
  5
92
100
AcDbEntity
  8
0
  6
ByLayer
 62
  256
370
   -1
100
AcDbLine
 10
-58.76069373494617
 20
220.2779192694414
 11
-58.76069373494617
 21
215.3779192694414
  0
LINE
  5
93
100
AcDbEntity
  8
0
  6
ByLayer
 62
  256
370
   -1
100
AcDbLine
 10
8.689306265053574
 20
15.57791926944173
 11
-121.3106937349461
 21
15.57791926944171
  0
LINE
  5
94
100
AcDbEntity
  8
0
  6
ByLayer
 62
  256
370
   -1
100
AcDbLine
 10
8.689306265053576
 20
20.4779192694417
 11
-121.3106937349461
 21
20.47791926944171
  0
LINE
  5
95
100
AcDbEntity
  8
0
  6
ByLayer
 62
  256
370
   -1
100
AcDbLine
 10
8.689306265053574
 20
48.87791926944157
 11
-121.3106937349461
 21
48.87791926944156
  0
LINE
  5
96
100
AcDbEntity
  8
0
  6
ByLayer
 62
  256
370
   -1
100
AcDbLine
 10
-121.3106937349461
 20
53.77791926944155
 11
8.689306265053576
 21
53.77791926944155
  0
LINE
  5
97
100
AcDbEntity
  8
0
  6
ByLayer
 62
  256
370
   -1
100
AcDbLine
 10
8.689306265053576
 20
82.17791926944142
 11
-121.3106937349461
 21
82.17791926944139
  0
LINE
  5
98
100
AcDbEntity
  8
0
  6
ByLayer
 62
  256
370
   -1
100
AcDbLine
 10
-121.3106937349461
 20
87.07791926944138
 11
8.689306265053576
 21
87.0779192694414
  0
LINE
  5
99
100
AcDbEntity
  8
0
  6
ByLayer
 62
  256
370
   -1
100
AcDbLine
 10
8.689306265053576
 20
115.4779192694413
 11
-121.3106937349461
 21
115.4779192694413
  0
LINE
  5
9A
100
AcDbEntity
  8
0
  6
ByLayer
 62
  256
370
   -1
100
AcDbLine
 10
-121.3106937349461
 20
120.3779192694413
 11
8.689306265053576
 21
120.3779192694413
  0
LINE
  5
9B
100
AcDbEntity
  8
0
  6
ByLayer
 62
  256
370
   -1
100
AcDbLine
 10
8.689306265053576
 20
148.7779192694411
 11
-121.3106937349461
 21
148.7779192694411
  0
LINE
  5
9C
100
AcDbEntity
  8
0
  6
ByLayer
 62
  256
370
   -1
100
AcDbLine
 10
-121.3106937349461
 20
153.6779192694411
 11
8.689306265053576
 21
153.6779192694411
  0
LINE
  5
9D
100
AcDbEntity
  8
0
  6
ByLayer
 62
  256
370
   -1
100
AcDbLine
 10
8.689306265053567
 20
182.077919269441
 11
-121.3106937349461
 21
182.077919269441
  0
LINE
  5
9E
100
AcDbEntity
  8
0
  6
ByLayer
 62
  256
370
   -1
100
AcDbLine
 10
-121.3106937349461
 20
186.977919269441
 11
8.689306265053567
 21
186.977919269441
  0
LINE
  5
9F
100
AcDbEntity
  8
0
  6
ByLayer
 62
  256
370
   -1
100
AcDbLine
 10
8.689306265053576
 20
215.3779192694414
 11
-121.3106937349461
 21
215.3779192694414
  0
LINE
  5
A0
100
AcDbEntity
  8
0
  6
ByLayer
 62
  256
370
   -1
100
AcDbLine
 10
-121.3106937349461
 20
220.2779192694414
 11
8.689306265053567
 21
220.2779192694414
  0
CIRCLE
  5
A1
100
AcDbEntity
  8
0
  6
ByLayer
 62
  256
370
   -1
100
AcDbCircle
 10
-78.81069373494616
 20
203.8779192694413
 40
4.999999999999991
  0
CIRCLE
  5
A2
100
AcDbEntity
  8
0
  6
ByLayer
 62
  256
370
   -1
100
AcDbCircle
 10
0.6893062650535596
 20
-3.0220807305582
 40
5
  0
LINE
  5
A3
100
AcDbEntity
  8
0
  6
ByLayer
 62
  256
370
   -1
100
AcDbLine
 10
-108.3106937349461
 20
-31.75707472575343
 11
-108.3106937349461
 21
-28.56078168748406
  0
LINE
  5
A4
100
AcDbEntity
  8
0
  6
ByLayer
 62
  256
370
   -1
100
AcDbLine
 10
-108.3106937349461
 20
-28.56078168748406
 11
-108.3106937349461
 21
247.6129132646366
  0
LINE
  5
A5
100
AcDbEntity
  8
0
  6
ByLayer
 62
  256
370
   -1
100
AcDbLine
 10
-94.31069373494614
 20
248.8779192694413
 11
-94.31069373494614
 21
-33.02208073055858
  0
LINE
  5
A6
100
AcDbEntity
  8
0
  6
ByLayer
 62
  256
370
   -1
100
AcDbLine
 10
-63.31069373494618
 20
-33.02208073056016
 11
-63.31069373494628
 21
248.8779192694413
  0
LINE
  5
A7
100
AcDbEntity
  8
0
  6
ByLayer
 62
  256
370
   -1
100
AcDbLine
 10
-49.31069373494618
 20
-33.02208073055625
 11
-49.31069373494629
 21
248.8779192694413
  0
LINE
  5
A8
100
AcDbEntity
  8
0
  6
ByLayer
 62
  256
370
   -1
100
AcDbLine
 10
-106.3106937349461
 20
233.8779192694413
 11
-106.3106937349461
 21
35.27791926944165
  0
LINE
  5
A9
100
AcDbEntity
  8
0
  6
ByLayer
 62
  256
370
   -1
100
AcDbLine
 10
-96.31069373494613
 20
35.27791926944164
 11
-96.31069373494613
 21
233.8779192694413
  0
LINE
  5
AA
100
AcDbEntity
  8
0
  6
ByLayer
 62
  256
370
   -1
100
AcDbLine
 10
-61.31069373494618
 20
233.8779192694413
 11
-61.31069373494618
 21
35.27791926944165
  0
LINE
  5
AB
100
AcDbEntity
  8
0
  6
ByLayer
 62
  256
370
   -1
100
AcDbLine
 10
-51.31069373494618
 20
35.27791926944162
 11
-51.31069373494618
 21
233.8779192694413
  0
LINE
  5
AC
100
AcDbEntity
  8
0
  6
ByLayer
 62
  256
370
   -1
100
AcDbLine
 10
-18.31069373494638
 20
-33.02208073055786
 11
-18.31069373494649
 21
248.8779192694414
  0
LINE
  5
AD
100
AcDbEntity
  8
0
  6
ByLayer
 62
  256
370
   -1
100
AcDbLine
 10
-4.310693734946448
 20
247.6129132646366
 11
-4.310693734946437
 21
-31.75707472575343
  0
LINE
  5
AE
100
AcDbEntity
  8
0
  6
ByLayer
 62
  256
370
   -1
100
AcDbLine
 10
-16.31069373494645
 20
200.5779192694409
 11
-16.31069373494639
 21
1.97791926944177
  0
LINE
  5
AF
100
AcDbEntity
  8
0
  6
ByLayer
 62
  256
370
   -1
100
AcDbLine
 10
-6.310693734946442
 20
1.977919269441781
 11
-6.310693734946503
 21
200.5779192694409
  0
ENDBLK
  5
53
330
51
100
AcDbEntity
  8
0
100
AcDbBlockEnd
  0
ENDSEC
  0
SECTION
  2
ENTITIES
  0
CIRCLE
  5
B0
100
AcDbEntity
  8
0
  6
ByLayer
 62
  256
370
   -1
100
AcDbCircle
 10
8.000000000000085
 20
251.8999999999996
 40
5
  0
CIRCLE
  5
B1
100
AcDbEntity
  8
0
  6
ByLayer
 62
  256
370
   -1
100
AcDbCircle
 10
7.999999999999986
 20
30.00000000000001
 40
5
  0
CIRCLE
  5
B2
100
AcDbEntity
  8
0
  6
ByLayer
 62
  256
370
   -1
100
AcDbCircle
 10
121.9999999999997
 20
251.8999999999996
 40
5.000000000000011
  0
CIRCLE
  5
B3
100
AcDbEntity
  8
0
  6
ByLayer
 62
  256
370
   -1
100
AcDbCircle
 10
121.9999999999997
 20
30.00000000000004
 40
5
  0
LWPOLYLINE
  5
B4
100
AcDbEntity
  8
0
  6
ByLayer
 62
  256
370
   -1
100
AcDbPolyline
 90
   12
 70
    1
 43
0
 10
69.99999999996999
 20
20.00000000003124
 10
70.00000000000198
 20
2.081890215777094e-12
 10
109.9999999999997
 20
2.131628207280301e-14
 42
0.4142135623730953
 10
129.9999999999997
 20
20.00000000000004
 10
129.9999999999997
 20
261.8999999999996
 42
0.4142135623730951
 10
109.9999999999997
 20
281.8999999999996
 10
19.99999999999999
 20
281.8999999999996
 42
0.4142135623730951
 10
-1.4210854715202e-14
 20
261.8999999999996
 10
-1.4210854715202e-14
 20
20.00000000000002
 42
0.4142135623730951
 10
19.99999999999999
 20
7.105427357601002e-15
 10
59.99999999999768
 20
-2.039257651631488e-12
 10
60.00000000003183
 20
19.99999999996881
 42
-0.9999999999999997
  0
LWPOLYLINE
  5
B5
100
AcDbEntity
  8
0
  6
ByLayer
 62
  256
370
   -1
100
AcDbPolyline
 90
    4
 70
    1
 43
0
 10
68.00000000000168
 20
38.12613645756601
 10
67.9999999999731
 20
35.00000000000005
 42
-0.9999999999999999
 10
62.00000000000173
 20
34.99999999999999
 10
62.00000000000168
 20
38.12613645756652
 42
-4.79128784747792
  0
LINE
  5
B6
100
AcDbEntity
  8
Engrave
  6
ByLayer
 62
  256
370
   -1
100
AcDbLine
 10
129.9999999999997
 20
48.59999999999996
 11
-1.4210854715202e-14
 21
48.59999999999994
  0
LINE
  5
B7
100
AcDbEntity
  8
Engrave
  6
ByLayer
 62
  256
370
   -1
100
AcDbLine
 10
129.9999999999997
 20
53.49999999999994
 11
-1.4210854715202e-14
 21
53.49999999999995
  0
LINE
  5
B8
100
AcDbEntity
  8
Engrave
  6
ByLayer
 62
  256
370
   -1
100
AcDbLine
 10
129.9999999999997
 20
81.89999999999981
 11
-1.4210854715202e-14
 21
81.89999999999981
  0
LINE
  5
B9
100
AcDbEntity
  8
Engrave
  6
ByLayer
 62
  256
370
   -1
100
AcDbLine
 10
-1.4210854715202e-14
 20
86.79999999999978
 11
129.9999999999997
 21
86.79999999999978
  0
LINE
  5
BA
100
AcDbEntity
  8
Engrave
  6
ByLayer
 62
  256
370
   -1
100
AcDbLine
 10
129.9999999999997
 20
115.1999999999996
 11
-1.4210854715202e-14
 21
115.1999999999996
  0
LINE
  5
BB
100
AcDbEntity
  8
Engrave
  6
ByLayer
 62
  256
370
   -1
100
AcDbLine
 10
-1.4210854715202e-14
 20
120.0999999999996
 11
129.9999999999997
 21
120.0999999999996
  0
LINE
  5
BC
100
AcDbEntity
  8
Engrave
  6
ByLayer
 62
  256
370
   -1
100
AcDbLine
 10
129.9999999999997
 20
148.4999999999995
 11
-1.4210854715202e-14
 21
148.4999999999995
  0
LINE
  5
BD
100
AcDbEntity
  8
Engrave
  6
ByLayer
 62
  256
370
   -1
100
AcDbLine
 10
-1.4210854715202e-14
 20
153.3999999999995
 11
129.9999999999997
 21
153.3999999999995
  0
LINE
  5
BE
100
AcDbEntity
  8
Engrave
  6
ByLayer
 62
  256
370
   -1
100
AcDbLine
 10
129.9999999999997
 20
181.7999999999994
 11
-1.4210854715202e-14
 21
181.7999999999994
  0
LINE
  5
BF
100
AcDbEntity
  8
Engrave
  6
ByLayer
 62
  256
370
   -1
100
AcDbLine
 10
-1.4210854715202e-14
 20
186.6999999999993
 11
129.9999999999997
 21
186.6999999999993
  0
LINE
  5
C0
100
AcDbEntity
  8
Engrave
  6
ByLayer
 62
  256
370
   -1
100
AcDbLine
 10
129.9999999999997
 20
215.0999999999992
 11
-1.4210854715202e-14
 21
215.0999999999992
  0
LINE
  5
C1
100
AcDbEntity
  8
Engrave
  6
ByLayer
 62
  256
370
   -1
100
AcDbLine
 10
-1.4210854715202e-14
 20
219.9999999999992
 11
129.9999999999997
 21
219.9999999999992
  0
LINE
  5
C2
100
AcDbEntity
  8
Engrave
  6
ByLayer
 62
  256
370
   -1
100
AcDbLine
 10
129.9999999999997
 20
248.3999999999996
 11
-1.4210854715202e-14
 21
248.3999999999996
  0
LINE
  5
C3
100
AcDbEntity
  8
Engrave
  6
ByLayer
 62
  256
370
   -1
100
AcDbLine
 10
-1.4210854715202e-14
 20
253.2999999999996
 11
129.9999999999997
 21
253.2999999999996
  0
LINE
  5
C4
100
AcDbEntity
  8
Engrave
  6
ByLayer
 62
  256
370
   -1
100
AcDbLine
 10
13.00000000000001
 20
4.461299043074185
 11
13.00000000000001
 21
280.6349939951948
  0
LINE
  5
C5
100
AcDbEntity
  8
Engrave
  6
ByLayer
 62
  256
370
   -1
100
AcDbLine
 10
26.99999999999996
 20
281.8999999999996
 11
26.99999999999996
 21
-3.410605131648481e-13
  0
LINE
  5
C6
100
AcDbEntity
  8
Engrave
  6
ByLayer
 62
  256
370
   -1
100
AcDbLine
 10
57.99999999999992
 20
-1.925570813909872e-12
 11
57.99999999999982
 21
281.8999999999996
  0
LINE
  5
C7
100
AcDbEntity
  8
Engrave
  6
ByLayer
 62
  256
370
   -1
100
AcDbLine
 10
71.99999999999991
 20
1.98241423277068e-12
 11
71.9999999999998
 21
281.8999999999996
  0
LINE
  5
C8
100
AcDbEntity
  8
Engrave
  6
ByLayer
 62
  256
370
   -1
100
AcDbLine
 10
102.9999999999997
 20
3.765876499528531e-13
 11
102.9999999999996
 21
281.8999999999996
  0
LINE
  5
C9
100
AcDbEntity
  8
Engrave
  6
ByLayer
 62
  256
370
   -1
100
AcDbLine
 10
116.9999999999997
 20
280.6349939951948
 11
116.9999999999997
 21
1.26500600480481
  0
CIRCLE
  5
CA
100
AcDbEntity
  8
0
  6
ByLayer
 62
  256
370
   -1
100
AcDbCircle
 10
158
 20
251.8999999999996
 40
1.6
  0
CIRCLE
  5
CB
100
AcDbEntity
  8
0
  6
ByLayer
 62
  256
370
   -1
100
AcDbCircle
 10
271.9999999999995
 20
251.8999999999996
 40
1.600000000000001
  0
CIRCLE
  5
CC
100
AcDbEntity
  8
0
  6
ByLayer
 62
  256
370
   -1
100
AcDbCircle
 10
271.9999999999997
 20
29.99999999999999
 40
1.600000000000001
  0
CIRCLE
  5
CD
100
AcDbEntity
  8
0
  6
ByLayer
 62
  256
370
   -1
100
AcDbCircle
 10
158
 20
30.00000000000001
 40
1.6
  0
LWPOLYLINE
  5
CE
100
AcDbEntity
  8
0
  6
ByLayer
 62
  256
370
   -1
100
AcDbPolyline
 90
   12
 70
    1
 43
0
 10
202.4163159999997
 20
260.3999999999996
 42
-0.4142135623730992
 10
203.9163159999997
 20
261.8999999999996
 10
266.4999999999996
 20
261.8999999999996
 42
0.4142135623730921
 10
267.9999999999996
 20
263.3999999999996
 10
267.9999999999996
 20
268.3999999999996
 42
0.4142135623730923
 10
266.4999999999996
 20
269.8999999999995
 10
163.5
 20
269.8999999999995
 42
0.4142135623730923
 10
162
 20
268.3999999999996
 10
162
 20
230.099999999999
 42
0.4142135623730964
 10
163.5
 20
228.599999999999
 10
200.9163159999997
 20
228.5999999999991
 42
0.4142135623730951
 10
202.4163159999997
 20
230.0999999999991
  0
LWPOLYLINE
  5
CF
100
AcDbEntity
  8
0
  6
ByLayer
 62
  256
370
   -1
100
AcDbPolyline
 90
   12
 70
    1
 43
0
 10
189.622402010234
 20
41.5
 42
-0.4142135623730974
 10
188.122402010234
 20
40.00000000000001
 10
163.5
 20
39.99999999999999
 42
0.4142135623730949
 10
162
 20
38.49999999999999
 10
162
 20
13.49999999999999
 42
0.4142135623730921
 10
163.5
 20
11.99999999999999
 10
266.4999999999996
 20
12.00000000000001
 42
0.414213562373093
 10
267.9999999999996
 20
13.50000000000001
 10
267.9999999999996
 20
71.79999999999978
 42
0.4142135623730951
 10
266.4999999999996
 20
73.29999999999978
 10
191.122402010234
 20
73.29999999999984
 42
0.4142135623730951
 10
189.622402010234
 20
71.79999999999984
  0
LWPOLYLINE
  5
D0
100
AcDbEntity
  8
0
  6
ByLayer
 62
  256
370
   -1
100
AcDbPolyline
 90
    8
 70
    1
 43
0
 10
206.5499999999997
 20
157.8999999999998
 10
206.5499999999997
 20
143.9999999999998
 42
0.4142135623730937
 10
208.0499999999997
 20
142.4999999999998
 10
221.9499999999997
 20
142.4999999999998
 42
0.4142135623730951
 10
223.4499999999997
 20
143.9999999999998
 10
223.4499999999997
 20
157.8999999999998
 42
0.4142135623730936
 10
221.9499999999997
 20
159.3999999999998
 10
208.0499999999997
 20
159.3999999999998
 42
0.4142135623730936
  0
LWPOLYLINE
  5
D1
100
AcDbEntity
  8
0
  6
ByLayer
 62
  256
370
   -1
100
AcDbPolyline
 90
    8
 70
    1
 43
0
 10
206.5499999999997
 20
257.7999999999998
 10
206.5499999999997
 20
243.8999999999998
 42
0.4142135623730937
 10
208.0499999999997
 20
242.3999999999998
 10
221.9499999999997
 20
242.3999999999998
 42
0.4142135623730951
 10
223.4499999999997
 20
243.8999999999998
 10
223.4499999999997
 20
257.7999999999998
 42
0.4142135623730978
 10
221.9499999999997
 20
259.2999999999998
 10
208.0499999999998
 20
259.2999999999998
 42
0.4142135623730923
  0
LWPOLYLINE
  5
D2
100
AcDbEntity
  8
0
  6
ByLayer
 62
  256
370
   -1
100
AcDbPolyline
 90
    8
 70
    1
 43
0
 10
253.0499999999997
 20
75.89999999999984
 10
266.9499999999996
 20
75.89999999999984
 42
0.4142135623730966
 10
268.4499999999996
 20
77.39999999999984
 10
268.4499999999996
 20
91.2999999999998
 42
0.4142135623730966
 10
266.9499999999996
 20
92.79999999999984
 10
253.0499999999997
 20
92.79999999999981
 42
0.4142135623730951
 10
251.5499999999997
 20
91.29999999999981
 10
251.5499999999997
 20
77.39999999999985
 42
0.4142135623730965
  0
LWPOLYLINE
  5
D3
100
AcDbEntity
  8
0
  6
ByLayer
 62
  256
370
   -1
100
AcDbPolyline
 90
    8
 70
    1
 43
0
 10
176.95
 20
159.3999999999999
 10
163.05
 20
159.3999999999999
 42
0.4142135623730952
 10
161.55
 20
157.8999999999999
 10
161.55
 20
143.9999999999999
 42
0.4142135623730955
 10
163.05
 20
142.4999999999999
 10
176.95
 20
142.4999999999999
 42
0.4142135623730951
 10
178.45
 20
143.9999999999999
 10
178.45
 20
157.8999999999999
 42
0.4142135623730951
  0
LWPOLYLINE
  5
D4
100
AcDbEntity
  8
0
  6
ByLayer
 62
  256
370
   -1
100
AcDbPolyline
 90
    8
 70
    1
 43
0
 10
268.4499999999996
 20
177.2999999999999
 10
268.4499999999996
 20
191.1999999999998
 42
0.4142135623730895
 10
266.9499999999996
 20
192.6999999999998
 10
253.0499999999996
 20
192.6999999999998
 42
0.4142135623730923
 10
251.5499999999997
 20
191.1999999999998
 10
251.5499999999997
 20
177.2999999999999
 42
0.4142135623730951
 10
253.0499999999997
 20
175.7999999999999
 10
266.9499999999996
 20
175.7999999999999
 42
0.4142135623730951
  0
LWPOLYLINE
  5
D5
100
AcDbEntity
  8
0
  6
ByLayer
 62
  256
370
   -1
100
AcDbPolyline
 90
    8
 70
    1
 43
0
 10
163.05
 20
42.59999999999994
 10
176.95
 20
42.59999999999994
 42
0.4142135623730953
 10
178.45
 20
44.09999999999993
 10
178.45
 20
57.99999999999991
 42
0.4142135623730948
 10
176.95
 20
59.49999999999991
 10
163.05
 20
59.49999999999991
 42
0.4142135623730952
 10
161.55
 20
57.99999999999991
 10
161.55
 20
44.09999999999994
 42
0.4142135623730948
  0
LWPOLYLINE
  5
D6
100
AcDbEntity
  8
0
  6
ByLayer
 62
  256
370
   -1
100
AcDbPolyline
 90
    8
 70
    1
 43
0
 10
268.4499999999996
 20
210.5999999999998
 10
268.4499999999996
 20
224.4999999999999
 42
0.4142135623730923
 10
266.9499999999996
 20
225.9999999999999
 10
253.0499999999997
 20
225.9999999999999
 42
0.4142135623730951
 10
251.5499999999997
 20
224.4999999999999
 10
251.5499999999997
 20
210.5999999999998
 42
0.4142135623730979
 10
253.0499999999997
 20
209.0999999999998
 10
266.9499999999996
 20
209.0999999999998
 42
0.4142135623730979
  0
LWPOLYLINE
  5
D7
100
AcDbEntity
  8
0
  6
ByLayer
 62
  256
370
   -1
100
AcDbPolyline
 90
    8
 70
    1
 43
0
 10
178.45
 20
110.6999999999999
 10
178.45
 20
124.5999999999999
 42
0.4142135623730951
 10
176.95
 20
126.0999999999999
 10
163.05
 20
126.0999999999999
 42
0.4142135623730955
 10
161.55
 20
124.5999999999999
 10
161.55
 20
110.6999999999999
 42
0.4142135623730965
 10
163.05
 20
109.1999999999999
 10
176.95
 20
109.1999999999999
 42
0.4142135623730951
  0
LWPOLYLINE
  5
D8
100
AcDbEntity
  8
0
  6
ByLayer
 62
  256
370
   -1
100
AcDbPolyline
 90
    8
 70
    1
 43
0
 10
253.0499999999997
 20
109.1999999999998
 10
266.9499999999996
 20
109.1999999999998
 42
0.4142135623730951
 10
268.4499999999996
 20
110.6999999999998
 10
268.4499999999996
 20
124.5999999999998
 42
0.4142135623730951
 10
266.9499999999996
 20
126.0999999999998
 10
253.0499999999997
 20
126.0999999999998
 42
0.4142135623730951
 10
251.5499999999997
 20
124.5999999999998
 10
251.5499999999997
 20
110.6999999999998
 42
0.4142135623730951
  0
LWPOLYLINE
  5
D9
100
AcDbEntity
  8
0
  6
ByLayer
 62
  256
370
   -1
100
AcDbPolyline
 90
    8
 70
    1
 43
0
 10
161.55
 20
224.4999999999999
 10
161.55
 20
210.5999999999999
 42
0.4142135623730979
 10
163.05
 20
209.0999999999999
 10
176.9499999999999
 20
209.0999999999999
 42
0.4142135623730979
 10
178.4499999999999
 20
210.5999999999999
 10
178.4499999999999
 20
224.4999999999999
 42
0.4142135623730943
 10
176.9499999999999
 20
225.9999999999999
 10
163.05
 20
225.9999999999999
 42
0.4142135623730945
  0
LWPOLYLINE
  5
DA
100
AcDbEntity
  8
0
  6
ByLayer
 62
  256
370
   -1
100
AcDbPolyline
 90
    8
 70
    1
 43
0
 10
206.5499999999997
 20
124.5999999999998
 10
206.5499999999997
 20
110.6999999999998
 42
0.4142135623730949
 10
208.0499999999997
 20
109.1999999999998
 10
221.9499999999997
 20
109.1999999999998
 42
0.4142135623730951
 10
223.4499999999997
 20
110.6999999999998
 10
223.4499999999997
 20
124.5999999999998
 42
0.4142135623730964
 10
221.9499999999997
 20
126.0999999999998
 10
208.0499999999997
 20
126.0999999999998
 42
0.4142135623730963
  0
LWPOLYLINE
  5
DB
100
AcDbEntity
  8
0
  6
ByLayer
 62
  256
370
   -1
100
AcDbPolyline
 90
    8
 70
    1
 43
0
 10
221.9499999999997
 20
192.6999999999998
 10
208.0499999999997
 20
192.6999999999998
 42
0.4142135623730951
 10
206.5499999999997
 20
191.1999999999998
 10
206.5499999999997
 20
177.2999999999998
 42
0.4142135623730937
 10
208.0499999999997
 20
175.7999999999998
 10
221.9499999999997
 20
175.7999999999998
 42
0.4142135623730921
 10
223.4499999999997
 20
177.2999999999998
 10
223.4499999999997
 20
191.1999999999998
 42
0.4142135623730951
  0
LWPOLYLINE
  5
DC
100
AcDbEntity
  8
0
  6
ByLayer
 62
  256
370
   -1
100
AcDbPolyline
 90
    8
 70
    1
 43
0
 10
206.5499999999997
 20
224.4999999999999
 10
206.5499999999998
 20
210.5999999999998
 42
0.4142135623730964
 10
208.0499999999997
 20
209.0999999999998
 10
221.9499999999997
 20
209.0999999999998
 42
0.4142135623730979
 10
223.4499999999997
 20
210.5999999999998
 10
223.4499999999997
 20
224.4999999999999
 42
0.4142135623730923
 10
221.9499999999997
 20
225.9999999999998
 10
208.0499999999997
 20
225.9999999999999
 42
0.4142135623730951
  0
LWPOLYLINE
  5
DD
100
AcDbEntity
  8
0
  6
ByLayer
 62
  256
370
   -1
100
AcDbPolyline
 90
    8
 70
    1
 43
0
 10
206.5499999999997
 20
91.29999999999981
 10
206.5499999999997
 20
77.39999999999982
 42
0.4142135623730951
 10
208.0499999999997
 20
75.89999999999984
 10
221.9499999999997
 20
75.89999999999981
 42
0.4142135623730951
 10
223.4499999999997
 20
77.39999999999981
 10
223.4499999999997
 20
91.29999999999981
 42
0.4142135623730951
 10
221.9499999999997
 20
92.79999999999981
 10
208.0499999999997
 20
92.79999999999981
 42
0.4142135623730951
  0
LWPOLYLINE
  5
DE
100
AcDbEntity
  8
0
  6
ByLayer
 62
  256
370
   -1
100
AcDbPolyline
 90
    8
 70
    1
 43
0
 10
178.45
 20
177.3
 10
178.45
 20
191.1999999999999
 42
0.4142135623730951
 10
176.95
 20
192.6999999999999
 10
163.05
 20
192.6999999999999
 42
0.4142135623730954
 10
161.55
 20
191.1999999999999
 10
161.55
 20
177.3
 42
0.4142135623730953
 10
163.05
 20
175.8
 10
176.95
 20
175.8
 42
0.4142135623730951
  0
LWPOLYLINE
  5
DF
100
AcDbEntity
  8
0
  6
ByLayer
 62
  256
370
   -1
100
AcDbPolyline
 90
    8
 70
    1
 43
0
 10
251.5499999999997
 20
157.8999999999998
 10
251.5499999999997
 20
143.9999999999998
 42
0.4142135623730921
 10
253.0499999999997
 20
142.4999999999999
 10
266.9499999999996
 20
142.4999999999998
 42
0.4142135623730951
 10
268.4499999999996
 20
143.9999999999998
 10
268.4499999999996
 20
157.8999999999998
 42
0.4142135623730951
 10
266.9499999999996
 20
159.3999999999998
 10
253.0499999999997
 20
159.3999999999998
 42
0.4142135623730951
  0
LWPOLYLINE
  5
E0
100
AcDbEntity
  8
0
  6
ByLayer
 62
  256
370
   -1
100
AcDbPolyline
 90
    8
 70
    1
 43
0
 10
163.05
 20
75.89999999999995
 10
176.95
 20
75.89999999999995
 42
0.4142135623730951
 10
178.45
 20
77.39999999999995
 10
178.4499999999999
 20
91.29999999999988
 42
0.4142135623730953
 10
176.95
 20
92.79999999999993
 10
163.05
 20
92.7999999999999
 42
0.4142135623730948
 10
161.55
 20
91.2999999999999
 10
161.55
 20
77.39999999999995
 42
0.4142135623730953
  0
LWPOLYLINE
  5
E1
100
AcDbEntity
  8
0
  6
ByLayer
 62
  256
370
   -1
100
AcDbPolyline
 90
    7
 70
    1
 43
0
 10
266.9499999999996
 20
259.2999999999998
 10
251.5499999999997
 20
259.2999999999998
 10
251.5499999999997
 20
243.8999999999998
 42
0.4142135623730951
 10
253.0499999999997
 20
242.3999999999998
 10
266.9499999999996
 20
242.3999999999998
 42
0.4142135623730951
 10
268.4499999999996
 20
243.8999999999998
 10
268.4499999999997
 20
257.7999999999998
 42
0.4142135623730923
  0
LWPOLYLINE
  5
E2
100
AcDbEntity
  8
0
  6
ByLayer
 62
  256
370
   -1
100
AcDbPolyline
 90
    8
 70
    1
 43
0
 10
259.9999999999997
 20
281.8999999999995
 42
-0.414213562373096
 10
279.9999999999997
 20
261.8999999999995
 10
279.9999999999997
 20
20.00000000000001
 42
-0.4142135623730955
 10
259.9999999999997
 20
-1.4210854715202e-14
 10
170
 20
0
 42
-0.4142135623730955
 10
150
 20
20.00000000000003
 10
150
 20
261.8999999999995
 42
-0.4142135623730954
 10
170
 20
281.8999999999995
  0
LWPOLYLINE
  5
E3
100
AcDbEntity
  8
0
  6
ByLayer
 62
  256
370
   -1
100
AcDbPolyline
 90
    8
 70
    1
 43
0
 10
206.5499999999997
 20
143.9999999999998
 10
206.5499999999997
 20
157.8999999999998
 42
-0.4142135623730868
 10
208.0499999999997
 20
159.3999999999998
 10
221.9499999999997
 20
159.3999999999998
 42
-0.4142135623730882
 10
223.4499999999997
 20
157.8999999999998
 10
223.4499999999997
 20
143.9999999999999
 42
-0.4142135623730896
 10
221.9499999999997
 20
142.4999999999998
 10
208.0499999999997
 20
142.4999999999999
 42
-0.4142135623730865
  0
LWPOLYLINE
  5
E4
100
AcDbEntity
  8
0
  6
ByLayer
 62
  256
370
   -1
100
AcDbPolyline
 90
    8
 70
    1
 43
0
 10
206.5499999999997
 20
243.8999999999998
 10
206.5499999999998
 20
257.7999999999998
 42
-0.4142135623731005
 10
208.0499999999997
 20
259.2999999999998
 10
221.9499999999997
 20
259.2999999999998
 42
-0.4142135623731185
 10
223.4499999999997
 20
257.7999999999998
 10
223.4499999999997
 20
243.8999999999998
 42
-0.4142135623730979
 10
221.9499999999997
 20
242.3999999999998
 10
208.0499999999997
 20
242.3999999999998
 42
-0.4142135623731019
  0
LWPOLYLINE
  5
E5
100
AcDbEntity
  8
0
  6
ByLayer
 62
  256
370
   -1
100
AcDbPolyline
 90
    8
 70
    1
 43
0
 10
266.9499999999996
 20
75.89999999999984
 10
253.0499999999996
 20
75.89999999999986
 42
-0.414213562373087
 10
251.5499999999997
 20
77.39999999999984
 10
251.5499999999996
 20
91.29999999999983
 42
-0.4142135623730908
 10
253.0499999999997
 20
92.79999999999984
 10
266.9499999999996
 20
92.79999999999981
 42
-0.4142135623730868
 10
268.4499999999996
 20
91.29999999999981
 10
268.4499999999996
 20
77.39999999999984
 42
-0.4142135623730921
  0
LWPOLYLINE
  5
E6
100
AcDbEntity
  8
0
  6
ByLayer
 62
  256
370
   -1
100
AcDbPolyline
 90
    8
 70
    1
 43
0
 10
163.05
 20
159.3999999999999
 10
176.95
 20
159.3999999999999
 42
-0.4142135623731015
 10
178.45
 20
157.8999999999999
 10
178.45
 20
143.9999999999999
 42
-0.4142135623730911
 10
176.95
 20
142.4999999999999
 10
163.05
 20
142.4999999999999
 42
-0.4142135623730904
 10
161.55
 20
143.9999999999999
 10
161.55
 20
157.8999999999999
 42
-0.4142135623730951
  0
LWPOLYLINE
  5
E7
100
AcDbEntity
  8
0
  6
ByLayer
 62
  256
370
   -1
100
AcDbPolyline
 90
    8
 70
    1
 43
0
 10
268.4499999999996
 20
191.1999999999998
 10
268.4499999999996
 20
177.2999999999999
 42
-0.4142135623730865
 10
266.9499999999996
 20
175.7999999999999
 10
253.0499999999997
 20
175.7999999999999
 42
-0.4142135623730809
 10
251.5499999999997
 20
177.2999999999999
 10
251.5499999999997
 20
191.1999999999998
 42
-0.4142135623730839
 10
253.0499999999997
 20
192.6999999999998
 10
266.9499999999997
 20
192.6999999999998
 42
-0.4142135623730812
  0
LWPOLYLINE
  5
E8
100
AcDbEntity
  8
0
  6
ByLayer
 62
  256
370
   -1
100
AcDbPolyline
 90
    8
 70
    1
 43
0
 10
176.95
 20
42.59999999999994
 10
163.05
 20
42.59999999999994
 42
-0.4142135623730943
 10
161.55
 20
44.09999999999994
 10
161.55
 20
57.99999999999991
 42
-0.4142135623730934
 10
163.05
 20
59.49999999999991
 10
176.95
 20
59.49999999999991
 42
-0.4142135623730951
 10
178.45
 20
57.99999999999991
 10
178.45
 20
44.09999999999993
 42
-0.4142135623730971
  0
LWPOLYLINE
  5
E9
100
AcDbEntity
  8
0
  6
ByLayer
 62
  256
370
   -1
100
AcDbPolyline
 90
    8
 70
    1
 43
0
 10
268.4499999999996
 20
224.4999999999999
 10
268.4499999999997
 20
210.5999999999998
 42
-0.4142135623731005
 10
266.9499999999996
 20
209.0999999999998
 10
253.0499999999997
 20
209.0999999999998
 42
-0.4142135623731035
 10
251.5499999999997
 20
210.5999999999998
 10
251.5499999999997
 20
224.4999999999999
 42
-0.4142135623730978
 10
253.0499999999997
 20
225.9999999999999
 10
266.9499999999996
 20
225.9999999999999
 42
-0.4142135623731008
  0
LWPOLYLINE
  5
EA
100
AcDbEntity
  8
0
  6
ByLayer
 62
  256
370
   -1
100
AcDbPolyline
 90
    8
 70
    1
 43
0
 10
178.45
 20
124.5999999999999
 10
178.45
 20
110.6999999999999
 42
-0.4142135623730937
 10
176.95
 20
109.1999999999999
 10
163.05
 20
109.1999999999999
 42
-0.4142135623730959
 10
161.55
 20
110.6999999999999
 10
161.55
 20
124.5999999999999
 42
-0.4142135623730909
 10
163.05
 20
126.0999999999999
 10
176.95
 20
126.0999999999999
 42
-0.4142135623730894
  0
LWPOLYLINE
  5
EB
100
AcDbEntity
  8
0
  6
ByLayer
 62
  256
370
   -1
100
AcDbPolyline
 90
    8
 70
    1
 43
0
 10
266.9499999999996
 20
109.1999999999998
 10
253.0499999999996
 20
109.1999999999998
 42
-0.414213562373087
 10
251.5499999999997
 20
110.6999999999998
 10
251.5499999999997
 20
124.5999999999998
 42
-0.4142135623730868
 10
253.0499999999997
 20
126.0999999999998
 10
266.9499999999997
 20
126.0999999999998
 42
-0.4142135623730812
 10
268.4499999999996
 20
124.5999999999998
 10
268.4499999999996
 20
110.6999999999998
 42
-0.4142135623730951
  0
LWPOLYLINE
  5
EC
100
AcDbEntity
  8
0
  6
ByLayer
 62
  256
370
   -1
100
AcDbPolyline
 90
    8
 70
    1
 43
0
 10
161.55
 20
210.5999999999999
 10
161.55
 20
224.4999999999999
 42
-0.4142135623731221
 10
163.05
 20
225.9999999999999
 10
176.9499999999999
 20
225.9999999999999
 42
-0.4142135623731151
 10
178.4499999999999
 20
224.4999999999999
 10
178.4499999999999
 20
210.5999999999999
 42
-0.4142135623731255
 10
176.9499999999999
 20
209.0999999999999
 10
163.05
 20
209.0999999999999
 42
-0.4142135623731183
  0
LWPOLYLINE
  5
ED
100
AcDbEntity
  8
0
  6
ByLayer
 62
  256
370
   -1
100
AcDbPolyline
 90
    8
 70
    1
 43
0
 10
206.5499999999997
 20
110.6999999999998
 10
206.5499999999997
 20
124.5999999999998
 42
-0.4142135623730936
 10
208.0499999999997
 20
126.0999999999998
 10
221.9499999999997
 20
126.0999999999998
 42
-0.4142135623730948
 10
223.4499999999997
 20
124.5999999999998
 10
223.4499999999997
 20
110.6999999999998
 42
-0.4142135623730896
 10
221.9499999999997
 20
109.1999999999998
 10
208.0499999999997
 20
109.1999999999998
 42
-0.4142135623730865
  0
LWPOLYLINE
  5
EE
100
AcDbEntity
  8
0
  6
ByLayer
 62
  256
370
   -1
100
AcDbPolyline
 90
    8
 70
    1
 43
0
 10
208.0499999999997
 20
192.6999999999998
 10
221.9499999999997
 20
192.6999999999998
 42
-0.4142135623730853
 10
223.4499999999997
 20
191.1999999999998
 10
223.4499999999997
 20
177.2999999999998
 42
-0.4142135623730823
 10
221.9499999999997
 20
175.7999999999998
 10
208.0499999999997
 20
175.7999999999998
 42
-0.4142135623730909
 10
206.5499999999997
 20
177.2999999999998
 10
206.5499999999997
 20
191.1999999999998
 42
-0.4142135623730853
  0
LWPOLYLINE
  5
EF
100
AcDbEntity
  8
0
  6
ByLayer
 62
  256
370
   -1
100
AcDbPolyline
 90
    8
 70
    1
 43
0
 10
206.5499999999997
 20
210.5999999999998
 10
206.5499999999998
 20
224.4999999999999
 42
-0.4142135623731005
 10
208.0499999999997
 20
225.9999999999998
 10
221.9499999999997
 20
225.9999999999998
 42
-0.4142135623731132
 10
223.4499999999997
 20
224.4999999999999
 10
223.4499999999997
 20
210.5999999999998
 42
-0.4142135623731005
 10
221.9499999999997
 20
209.0999999999998
 10
208.0499999999997
 20
209.0999999999998
 42
-0.4142135623731048
  0
LWPOLYLINE
  5
F0
100
AcDbEntity
  8
0
  6
ByLayer
 62
  256
370
   -1
100
AcDbPolyline
 90
    8
 70
    1
 43
0
 10
206.5499999999997
 20
77.39999999999984
 10
206.5499999999997
 20
91.2999999999998
 42
-0.4142135623730882
 10
208.0499999999997
 20
92.79999999999981
 10
221.9499999999997
 20
92.7999999999998
 42
-0.4142135623730882
 10
223.4499999999997
 20
91.29999999999981
 10
223.4499999999997
 20
77.39999999999982
 42
-0.4142135623730911
 10
221.9499999999997
 20
75.89999999999984
 10
208.0499999999997
 20
75.89999999999982
 42
-0.4142135623730883
  0
LWPOLYLINE
  5
F1
100
AcDbEntity
  8
0
  6
ByLayer
 62
  256
370
   -1
100
AcDbPolyline
 90
    8
 70
    1
 43
0
 10
178.45
 20
191.1999999999999
 10
178.45
 20
177.3
 42
-0.4142135623730951
 10
176.95
 20
175.8
 10
163.05
 20
175.8
 42
-0.4142135623730948
 10
161.55
 20
177.3
 10
161.55
 20
191.1999999999999
 42
-0.4142135623730881
 10
163.05
 20
192.6999999999999
 10
176.95
 20
192.6999999999999
 42
-0.4142135623730894
  0
LWPOLYLINE
  5
F2
100
AcDbEntity
  8
0
  6
ByLayer
 62
  256
370
   -1
100
AcDbPolyline
 90
    8
 70
    1
 43
0
 10
251.5499999999997
 20
143.9999999999998
 10
251.5499999999996
 20
157.8999999999998
 42
-0.4142135623730895
 10
253.0499999999997
 20
159.3999999999998
 10
266.9499999999997
 20
159.3999999999998
 42
-0.4142135623730784
 10
268.4499999999996
 20
157.8999999999998
 10
268.4499999999996
 20
143.9999999999999
 42
-0.4142135623730896
 10
266.9499999999996
 20
142.4999999999998
 10
253.0499999999997
 20
142.4999999999999
 42
-0.4142135623730784
  0
LWPOLYLINE
  5
F3
100
AcDbEntity
  8
0
  6
ByLayer
 62
  256
370
   -1
100
AcDbPolyline
 90
    8
 70
    1
 43
0
 10
176.95
 20
75.89999999999995
 10
163.05
 20
75.89999999999993
 42
-0.4142135623730932
 10
161.55
 20
77.39999999999995
 10
161.55
 20
91.2999999999999
 42
-0.414213562373093
 10
163.05
 20
92.79999999999993
 10
176.95
 20
92.7999999999999
 42
-0.4142135623730951
 10
178.45
 20
91.2999999999999
 10
178.45
 20
77.39999999999993
 42
-0.4142135623730917
  0
LWPOLYLINE
  5
F4
100
AcDbEntity
  8
0
  6
ByLayer
 62
  256
370
   -1
100
AcDbPolyline
 90
    7
 70
    1
 43
0
 10
251.5499999999997
 20
259.2999999999998
 10
266.9499999999997
 20
259.2999999999998
 42
-0.4142135623730978
 10
268.4499999999996
 20
257.7999999999998
 10
268.4499999999996
 20
243.8999999999998
 42
-0.4142135623730979
 10
266.9499999999996
 20
242.3999999999998
 10
253.0499999999997
 20
242.3999999999998
 42
-0.4142135623731006
 10
251.5499999999997
 20
243.8999999999998
  0
LWPOLYLINE
  5
F5
100
AcDbEntity
  8
0
  6
ByLayer
 62
  256
370
   -1
100
AcDbPolyline
 90
   12
 70
    1
 43
0
 10
202.4163159999997
 20
260.3999999999996
 42
-0.4142135623730936
 10
203.9163159999997
 20
261.8999999999996
 10
266.4999999999997
 20
261.8999999999996
 42
0.4142135623730948
 10
267.9999999999996
 20
263.3999999999996
 10
267.9999999999997
 20
268.3999999999996
 42
0.414213562373095
 10
266.4999999999996
 20
269.8999999999995
 10
163.5
 20
269.8999999999995
 42
0.4142135623730957
 10
161.9999999999999
 20
268.3999999999996
 10
161.9999999999999
 20
230.099999999999
 42
0.4142135623730974
 10
163.5
 20
228.599999999999
 10
200.9163159999997
 20
228.5999999999991
 42
0.4142135623731174
 10
202.4163159999997
 20
230.0999999999991
  0
LWPOLYLINE
  5
F6
100
AcDbEntity
  8
0
  6
ByLayer
 62
  256
370
   -1
100
AcDbPolyline
 90
   12
 70
    1
 43
0
 10
189.622402010234
 20
41.50000000000001
 42
-0.4142135623730951
 10
188.122402010234
 20
40.00000000000001
 10
163.5
 20
39.99999999999999
 42
0.4142135623730954
 10
162
 20
38.49999999999999
 10
162
 20
13.5
 42
0.4142135623730949
 10
163.5
 20
11.99999999999999
 10
266.4999999999996
 20
12.00000000000001
 42
0.4142135623730896
 10
267.9999999999996
 20
13.50000000000001
 10
267.9999999999996
 20
71.79999999999977
 42
0.4142135623730923
 10
266.4999999999996
 20
73.29999999999978
 10
191.122402010234
 20
73.29999999999983
 42
0.414213562373099
 10
189.622402010234
 20
71.79999999999984
  0
LWPOLYLINE
  5
F7
100
AcDbEntity
  8
0
  6
ByLayer
 62
  256
370
   -1
100
AcDbPolyline
 90
    8
 70
    1
 43
0
 10
259.9999999999997
 20
281.8999999999995
 42
-0.414213562373096
 10
279.9999999999997
 20
261.8999999999995
 10
279.9999999999997
 20
20.00000000000002
 42
-0.414213562373096
 10
259.9999999999997
 20
-7.105427357601002e-15
 10
170
 20
0
 42
-0.4142135623730951
 10
150
 20
20.00000000000002
 10
150
 20
261.8999999999995
 42
-0.4142135623730957
 10
170
 20
281.8999999999995
  0
CIRCLE
  5
F8
100
AcDbEntity
  8
0
  6
ByLayer
 62
  256
370
   -1
100
AcDbCircle
 10
158
 20
251.8999999999996
 40
1.6
  0
CIRCLE
  5
F9
100
AcDbEntity
  8
0
  6
ByLayer
 62
  256
370
   -1
100
AcDbCircle
 10
158
 20
251.8999999999996
 40
1.6
  0
CIRCLE
  5
FA
100
AcDbEntity
  8
0
  6
ByLayer
 62
  256
370
   -1
100
AcDbCircle
 10
158
 20
30.00000000000001
 40
1.6
  0
CIRCLE
  5
FB
100
AcDbEntity
  8
0
  6
ByLayer
 62
  256
370
   -1
100
AcDbCircle
 10
271.9999999999997
 20
29.99999999999999
 40
1.600000000000001
  0
CIRCLE
  5
FC
100
AcDbEntity
  8
0
  6
ByLayer
 62
  256
370
   -1
100
AcDbCircle
 10
271.9999999999997
 20
29.99999999999999
 40
1.600000000000001
  0
CIRCLE
  5
FD
100
AcDbEntity
  8
0
  6
ByLayer
 62
  256
370
   -1
100
AcDbCircle
 10
271.9999999999995
 20
251.8999999999996
 40
1.600000000000001
  0
ENDSEC
  0
SECTION
  2
OBJECTS
  0
DICTIONARY
  5
C
330
0
100
AcDbDictionary
281
    1
  3
ACAD_GROUP
350
D
  0
DICTIONARY
  5
D
330
C
100
AcDbDictionary
281
    1
  0
ENDSEC
  0
EOF
